<svg width="24" height="24" viewBox="0 0 24 24" fill="none" xmlns="http://www.w3.org/2000/svg">
<mask id="mask0_10727_18924" style="mask-type:alpha" maskUnits="userSpaceOnUse" x="1" y="1" width="22" height="22">
<rect x="1" y="1" width="22" height="22" fill="#D9D9D9"/>
</mask>
<g mask="url(#mask0_10727_18924)">
<path d="M9.25 18.4219V16.5885H20.25V18.4219H9.25ZM9.25 12.9219V11.0885H20.25V12.9219H9.25ZM9.25 7.42188V5.58854H20.25V7.42188H9.25ZM5.58333 19.3385C5.07917 19.3385 4.64757 19.159 4.28854 18.8C3.92951 18.441 3.75 18.0094 3.75 17.5052C3.75 17.001 3.92951 16.5694 4.28854 16.2104C4.64757 15.8514 5.07917 15.6719 5.58333 15.6719C6.0875 15.6719 6.5191 15.8514 6.87813 16.2104C7.23715 16.5694 7.41667 17.001 7.41667 17.5052C7.41667 18.0094 7.23715 18.441 6.87813 18.8C6.5191 19.159 6.0875 19.3385 5.58333 19.3385ZM5.58333 13.8385C5.07917 13.8385 4.64757 13.659 4.28854 13.3C3.92951 12.941 3.75 12.5094 3.75 12.0052C3.75 11.501 3.92951 11.0694 4.28854 10.7104C4.64757 10.3514 5.07917 10.1719 5.58333 10.1719C6.0875 10.1719 6.5191 10.3514 6.87813 10.7104C7.23715 11.0694 7.41667 11.501 7.41667 12.0052C7.41667 12.5094 7.23715 12.941 6.87813 13.3C6.5191 13.659 6.0875 13.8385 5.58333 13.8385ZM5.58333 8.33854C5.07917 8.33854 4.64757 8.15903 4.28854 7.8C3.92951 7.44097 3.75 7.00937 3.75 6.50521C3.75 6.00104 3.92951 5.56944 4.28854 5.21042C4.64757 4.85139 5.07917 4.67188 5.58333 4.67188C6.0875 4.67188 6.5191 4.85139 6.87813 5.21042C7.23715 5.56944 7.41667 6.00104 7.41667 6.50521C7.41667 7.00937 7.23715 7.44097 6.87813 7.8C6.5191 8.15903 6.0875 8.33854 5.58333 8.33854Z" fill="#002629"/>
</g>
</svg>
