<svg width="22" height="22" viewBox="0 0 22 22" fill="none" xmlns="http://www.w3.org/2000/svg">
<path fill-rule="evenodd" clip-rule="evenodd" d="M14.0379 19.2814C13.9462 19.9047 13.3779 20.3997 12.6995 20.3997H9.30788C8.62955 20.3997 8.06121 19.9047 7.97871 19.2355L7.73121 17.503C7.48371 17.3747 7.24538 17.2372 7.00705 17.0814L5.35705 17.7414C4.71538 17.9797 4.00955 17.7139 3.69788 17.1455L2.02038 14.2397C1.69955 13.6347 1.83705 12.9197 2.35038 12.5164L3.75288 11.4255C3.74371 11.288 3.73455 11.1505 3.73455 11.0039C3.73455 10.8664 3.74371 10.7197 3.75288 10.5822L2.35955 9.49135C1.81871 9.07886 1.68121 8.33635 2.02038 7.76802L3.71621 4.84385C4.02788 4.27552 4.73371 4.01885 5.35705 4.26635L7.01621 4.93552C7.25455 4.77969 7.49288 4.64219 7.73121 4.51385L7.97871 2.76302C8.06121 2.12135 8.62955 1.61719 9.29871 1.61719H12.6904C13.3687 1.61719 13.937 2.11219 14.0195 2.78135L14.267 4.51385C14.5145 4.64219 14.7529 4.77969 14.9912 4.93552L16.6412 4.27552C17.292 4.03719 17.9979 4.30302 18.3095 4.87135L19.9962 7.78635C20.3262 8.39135 20.1795 9.10635 19.6662 9.50969L18.2729 10.6005C18.282 10.738 18.2912 10.8755 18.2912 11.0222C18.2912 11.1689 18.282 11.3064 18.2729 11.4439L19.6662 12.5347C20.1795 12.9472 20.3262 13.6622 20.0054 14.2397L18.3004 17.1914C17.9887 17.7597 17.2829 18.0164 16.6504 17.7689L15.0004 17.1089C14.762 17.2647 14.5237 17.4022 14.2854 17.5305L14.0379 19.2814ZM9.73871 18.5664H12.2687L12.6079 16.2289L13.0937 16.0272C13.497 15.8622 13.9004 15.6239 14.322 15.3122L14.7345 15.0005L16.9162 15.8805L18.1812 13.6805L16.3204 12.2322L16.3845 11.7189L16.3874 11.6942C16.4139 11.4647 16.4395 11.2428 16.4395 11.0039C16.4395 10.7564 16.412 10.518 16.3845 10.2889L16.3204 9.77552L18.1812 8.32719L16.907 6.12719L14.7162 7.00719L14.3037 6.68635C13.9187 6.39302 13.5062 6.15469 13.0845 5.98052L12.6079 5.77885L12.2687 3.44135H9.73871L9.39955 5.77885L8.91371 5.97135C8.51038 6.14552 8.10705 6.37469 7.68538 6.69552L7.27288 6.99802L5.09121 6.12719L3.81705 8.31802L5.67788 9.76636L5.61371 10.2797C5.58621 10.518 5.55871 10.7655 5.55871 11.0039C5.55871 11.2422 5.57705 11.4897 5.61371 11.7189L5.67788 12.2322L3.81705 13.6805L5.08205 15.8805L7.27288 15.0005L7.68538 15.3214C8.07955 15.6239 8.47371 15.853 8.90455 16.0272L9.39038 16.2289L9.73871 18.5664ZM14.212 11.0039C14.212 12.7758 12.7756 14.2122 11.0037 14.2122C9.2318 14.2122 7.79538 12.7758 7.79538 11.0039C7.79538 9.23194 9.2318 7.79552 11.0037 7.79552C12.7756 7.79552 14.212 9.23194 14.212 11.0039Z" fill="#002629"/>
</svg>
