<svg width="26" height="30" viewBox="0 0 26 30" fill="none" xmlns="http://www.w3.org/2000/svg">
<path fill-rule="evenodd" clip-rule="evenodd" d="M15.9219 16.5875L21.9821 23.75L20.4062 25.6125L14.3461 18.45C13.2144 19.4125 11.8501 20 10.3589 20C6.56204 20 3.48438 16.3625 3.48438 11.875C3.48438 7.3875 6.56204 3.75 10.3589 3.75C14.1557 3.75 17.2334 7.3875 17.2334 11.875C17.2334 13.6375 16.7363 15.25 15.9219 16.5875ZM10.3589 6.25C7.72542 6.25 5.59961 8.7625 5.59961 11.875C5.59961 14.9875 7.72542 17.5 10.3589 17.5C12.9923 17.5 15.1182 14.9875 15.1182 11.875C15.1182 8.7625 12.9923 6.25 10.3589 6.25Z" fill="#03656B"/>
</svg>
